<svg xmlns="http://www.w3.org/2000/svg">

    <svg id="i-search" viewBox="0 0 32 32" width="100%" height="100%" fill="none" stroke="currentcolor" stroke-linecap="round" stroke-linejoin="round" stroke-width="2">
        <circle cx="14" cy="14" r="12" />
        <path d="M23 23 L30 30"  />
    </svg>

    <symbol id="circle" fill="currentcolor" height="100%" viewBox="0 0 24 24" width="100%" xmlns="http://www.w3.org/2000/svg">
        <path d="M24 24H0V0h24v24z" fill="none" />
        <circle cx="12" cy="12" fill="currentcolor" r="8" />
    </symbol>

    <symbol id="account-circle" fill="currentcolor" height="100%" viewBox="0 0 24 24" width="100%" xmlns="http://www.w3.org/2000/svg">
        <path d="M12 2C6.48 2 2 6.48 2 12s4.48 10 10 10 10-4.48 10-10S17.52 2 12 2zm0 3c1.66 0 3 1.34 3 3s-1.34 3-3 3-3-1.34-3-3 1.34-3 3-3zm0 14.2c-2.5 0-4.71-1.28-6-3.22.03-1.99 4-3.08 6-3.08 1.99 0 5.97 1.09 6 3.08-1.29 1.94-3.5 3.22-6 3.22z"
        />
        <path d="M0 0h24v24H0z" fill="none" />
    </symbol>

    <symbol id="add-shopping-cart" fill="currentcolor" height="100%" viewBox="0 0 24 24" width="100%" xmlns="http://www.w3.org/2000/svg">
        <path d="M0 0h24v24H0zm18.31 6l-2.76 5z" fill="none" />
        <path d="M11 9h2V6h3V4h-3V1h-2v3H8v2h3v3zm-4 9c-1.1 0-1.99.9-1.99 2S5.9 22 7 22s2-.9 2-2-.9-2-2-2zm10 0c-1.1 0-1.99.9-1.99 2s.89 2 1.99 2 2-.9 2-2-.9-2-2-2zm-9.83-3.25l.03-.12.9-1.63h7.45c.75 0 1.41-.41 1.75-1.03l3.86-7.01L19.42 4h-.01l-1.1 2-2.76 5H8.53l-.13-.27L6.16 6l-.95-2-.94-2H1v2h2l3.6 7.59-1.35 2.45c-.16.28-.25.61-.25.96 0 1.1.9 2 2 2h12v-2H7.42c-.13 0-.25-.11-.25-.25z"
        />
    </symbol>

    <symbol id="compare-arrows-black" fill="currentcolor" height="100%" viewBox="0 0 24 24" width="100%" xmlns="http://www.w3.org/2000/svg"
        xmlns:xlink="http://www.w3.org/1999/xlink">
        <defs>
            <path d="M0 0h24v24H0V0z" id="a" />
        </defs>
        <clipPath id="b">
            <use overflow="visible" xlink:href="#a" />
        </clipPath>
        <path clip-path="url(#b)" d="M9.01 14H2v2h7.01v3L13 15l-3.99-4v3zm5.98-1v-3H22V8h-7.01V5L11 9l3.99 4z" />
    </symbol>

    <symbol id="folder-special" fill="currentcolor" height="100%" viewBox="0 0 24 24" width="100%" xmlns="http://www.w3.org/2000/svg">
        <path d="M0 0h24v24H0V0z" fill="none" />
        <path d="M20 6h-8l-2-2H4c-1.1 0-2 .9-2 2v12c0 1.1.9 2 2 2h16c1.1 0 2-.9 2-2V8c0-1.1-.9-2-2-2zm-2.06 11L15 15.28 12.06 17l.78-3.33-2.59-2.24 3.41-.29L15 8l1.34 3.14 3.41.29-2.59 2.24.78 3.33z"
        />
    </symbol>

    <symbol id="headset" fill="currentcolor" height="100%" viewBox="0 0 24 24" width="100%" xmlns="http://www.w3.org/2000/svg">
        <path d="M0 0h24v24H0z" fill="none" opacity=".1" />
        <path d="M12 1c-4.97 0-9 4.03-9 9v7c0 1.66 1.34 3 3 3h3v-8H5v-2c0-3.87 3.13-7 7-7s7 3.13 7 7v2h-4v8h4v1h-7v2h6c1.66 0 3-1.34 3-3V10c0-4.97-4.03-9-9-9z"
        />
    </symbol>

    <symbol id="help-black" fill="currentcolor" height="100%" viewBox="0 0 24 24" width="100%" xmlns="http://www.w3.org/2000/svg">
        <path d="M0 0h24v24H0z" fill="none" />
        <path d="M12 2C6.48 2 2 6.48 2 12s4.48 10 10 10 10-4.48 10-10S17.52 2 12 2zm1 17h-2v-2h2v2zm2.07-7.75l-.9.92C13.45 12.9 13 13.5 13 15h-2v-.5c0-1.1.45-2.1 1.17-2.83l1.24-1.26c.37-.36.59-.86.59-1.41 0-1.1-.9-2-2-2s-2 .9-2 2H8c0-2.21 1.79-4 4-4s4 1.79 4 4c0 .88-.36 1.68-.93 2.25z"
        />
    </symbol>

    <symbol id="help-outline" fill="currentcolor" height="100%" viewBox="0 0 24 24" width="100%" xmlns="http://www.w3.org/2000/svg">
        <path d="M0 0h24v24H0z" fill="none" />
        <path d="M11 18h2v-2h-2v2zm1-16C6.48 2 2 6.48 2 12s4.48 10 10 10 10-4.48 10-10S17.52 2 12 2zm0 18c-4.41 0-8-3.59-8-8s3.59-8 8-8 8 3.59 8 8-3.59 8-8 8zm0-14c-2.21 0-4 1.79-4 4h2c0-1.1.9-2 2-2s2 .9 2 2c0 2-3 1.75-3 5h2c0-2.25 3-2.5 3-5 0-2.21-1.79-4-4-4z"
        />
    </symbol>

    <symbol id="info-black" fill="currentcolor" height="100%" viewBox="0 0 24 24" width="100%" xmlns="http://www.w3.org/2000/svg">
        <path d="M0 0h24v24H0z" fill="none" />
        <path d="M12 2C6.48 2 2 6.48 2 12s4.48 10 10 10 10-4.48 10-10S17.52 2 12 2zm1 15h-2v-6h2v6zm0-8h-2V7h2v2z" />
    </symbol>

    <symbol id="info-outline" fill="currentcolor" height="100%" viewBox="0 0 24 24" width="100%" xmlns="http://www.w3.org/2000/svg">
        <path d="M0 0h24v24H0z" fill="none" />
        <path d="M11 17h2v-6h-2v6zm1-15C6.48 2 2 6.48 2 12s4.48 10 10 10 10-4.48 10-10S17.52 2 12 2zm0 18c-4.41 0-8-3.59-8-8s3.59-8 8-8 8 3.59 8 8-3.59 8-8 8zM11 9h2V7h-2v2z"
        />
    </symbol>

    <symbol id="keyboard-arrow-left" fill="currentcolor" height="100%" viewBox="0 0 24 24" width="100%" xmlns="http://www.w3.org/2000/svg">
        <path d="M15.41 16.09l-4.58-4.59 4.58-4.59L14 5.5l-6 6 6 6z" />
        <path d="M0-.5h24v24H0z" fill="none" />
    </symbol>

    <symbol id="keyboard-arrow-right" fill="currentcolor" height="100%" viewBox="0 0 24 24" width="100%" xmlns="http://www.w3.org/2000/svg">
        <path d="M8.59 16.34l4.58-4.59-4.58-4.59L10 5.75l6 6-6 6z" />
        <path d="M0-.25h24v24H0z" fill="none" />
    </symbol>

    <symbol id="language-black" fill="currentcolor" height="100%" viewBox="0 0 24 24" width="100%" xmlns="http://www.w3.org/2000/svg">
        <path d="M0 0h24v24H0z" fill="none" />
        <path d="M11.99 2C6.47 2 2 6.48 2 12s4.47 10 9.99 10C17.52 22 22 17.52 22 12S17.52 2 11.99 2zm6.93 6h-2.95c-.32-1.25-.78-2.45-1.38-3.56 1.84.63 3.37 1.91 4.33 3.56zM12 4.04c.83 1.2 1.48 2.53 1.91 3.96h-3.82c.43-1.43 1.08-2.76 1.91-3.96zM4.26 14C4.1 13.36 4 12.69 4 12s.1-1.36.26-2h3.38c-.08.66-.14 1.32-.14 2 0 .68.06 1.34.14 2H4.26zm.82 2h2.95c.32 1.25.78 2.45 1.38 3.56-1.84-.63-3.37-1.9-4.33-3.56zm2.95-8H5.08c.96-1.66 2.49-2.93 4.33-3.56C8.81 5.55 8.35 6.75 8.03 8zM12 19.96c-.83-1.2-1.48-2.53-1.91-3.96h3.82c-.43 1.43-1.08 2.76-1.91 3.96zM14.34 14H9.66c-.09-.66-.16-1.32-.16-2 0-.68.07-1.35.16-2h4.68c.09.65.16 1.32.16 2 0 .68-.07 1.34-.16 2zm.25 5.56c.6-1.11 1.06-2.31 1.38-3.56h2.95c-.96 1.65-2.49 2.93-4.33 3.56zM16.36 14c.08-.66.14-1.32.14-2 0-.68-.06-1.34-.14-2h3.38c.16.64.26 1.31.26 2s-.1 1.36-.26 2h-3.38z"
        />
    </symbol>

    <symbol id="lens" fill="currentcolor" height="100%" viewBox="0 0 24 24" width="100%" xmlns="http://www.w3.org/2000/svg">
        <path d="M0 0h24v24H0z" fill="none" />
        <path d="M12 2C6.48 2 2 6.48 2 12s4.48 10 10 10 10-4.48 10-10S17.52 2 12 2z" />
    </symbol>

    <symbol id="live-help" fill="currentcolor" height="100%" viewBox="0 0 24 24" width="100%" xmlns="http://www.w3.org/2000/svg">
        <path d="M0 0h24v24H0z" fill="none" />
        <path d="M19 2H5c-1.11 0-2 .9-2 2v14c0 1.1.89 2 2 2h4l3 3 3-3h4c1.1 0 2-.9 2-2V4c0-1.1-.9-2-2-2zm-6 16h-2v-2h2v2zm2.07-7.75l-.9.92C13.45 11.9 13 12.5 13 14h-2v-.5c0-1.1.45-2.1 1.17-2.83l1.24-1.26c.37-.36.59-.86.59-1.41 0-1.1-.9-2-2-2s-2 .9-2 2H8c0-2.21 1.79-4 4-4s4 1.79 4 4c0 .88-.36 1.68-.93 2.25z"
        />
    </symbol>

    <symbol id="menu" fill="currentcolor" height="100%" viewBox="0 0 24 24" width="100%" xmlns="http://www.w3.org/2000/svg">
        <path d="M0 0h24v24H0z" fill="none" />
        <path d="M3 18h18v-2H3v2zm0-5h18v-2H3v2zm0-7v2h18V6H3z" />
    </symbol>

    <symbol id="pan-tool" fill="currentcolor" height="100%" viewBox="0 0 24 24" width="100%" xmlns="http://www.w3.org/2000/svg" xmlns:xlink="http://www.w3.org/1999/xlink">
        <defs>
            <path d="M0 0h24v24H0z" id="a" />
        </defs>
        <clipPath id="b">
            <use overflow="visible" xlink:href="#a" />
        </clipPath>
        <path clip-path="url(#b)" d="M23 5.5V20c0 2.2-1.8 4-4 4h-7.3c-1.08 0-2.1-.43-2.85-1.19L1 14.83s1.26-1.23 1.3-1.25c.22-.19.49-.29.79-.29.22 0 .42.06.6.16.04.01 4.31 2.46 4.31 2.46V4c0-.83.67-1.5 1.5-1.5S11 3.17 11 4v7h1V1.5c0-.83.67-1.5 1.5-1.5S15 .67 15 1.5V11h1V2.5c0-.83.67-1.5 1.5-1.5s1.5.67 1.5 1.5V11h1V5.5c0-.83.67-1.5 1.5-1.5s1.5.67 1.5 1.5z"
        />
    </symbol>

    <symbol id="panorama-fish-eye" fill="currentcolor" height="100%" viewBox="0 0 24 24" width="100%" xmlns="http://www.w3.org/2000/svg">
        <path d="M0 0h24v24H0z" fill="none" />
        <path d="M12 2C6.47 2 2 6.47 2 12s4.47 10 10 10 10-4.47 10-10S17.53 2 12 2zm0 18c-4.41 0-8-3.59-8-8s3.59-8 8-8 8 3.59 8 8-3.59 8-8 8z"
        />
    </symbol>

    <symbol id="refresh-black" fill="currentcolor" height="100%" viewBox="0 0 24 24" width="100%" xmlns="http://www.w3.org/2000/svg">
        <path d="M17.65 6.35C16.2 4.9 14.21 4 12 4c-4.42 0-7.99 3.58-7.99 8s3.57 8 7.99 8c3.73 0 6.84-2.55 7.73-6h-2.08c-.82 2.33-3.04 4-5.65 4-3.31 0-6-2.69-6-6s2.69-6 6-6c1.66 0 3.14.69 4.22 1.78L13 11h7V4l-2.35 2.35z"
        />
        <path d="M0 0h24v24H0z" fill="none" />
    </symbol>

    <symbol id="remove-shopping-cart" fill="currentcolor" height="100%" viewBox="0 0 24 24" width="100%" xmlns="http://www.w3.org/2000/svg">
        <path d="M22.73 22.73L2.77 2.77 2 2l-.73-.73L0 2.54l4.39 4.39 2.21 4.66-1.35 2.45c-.16.28-.25.61-.25.96 0 1.1.9 2 2 2h7.46l1.38 1.38c-.5.36-.83.95-.83 1.62 0 1.1.89 2 1.99 2 .67 0 1.26-.33 1.62-.84L21.46 24l1.27-1.27zM7.42 15c-.14 0-.25-.11-.25-.25l.03-.12.9-1.63h2.36l2 2H7.42zm8.13-2c.75 0 1.41-.41 1.75-1.03l3.58-6.49c.08-.14.12-.31.12-.48 0-.55-.45-1-1-1H6.54l9.01 9zM7 18c-1.1 0-1.99.9-1.99 2S5.9 22 7 22s2-.9 2-2-.9-2-2-2z"
        />
        <path d="M0 0h24v24H0z" fill="none" />
    </symbol>

    <symbol id="rotate-right" fill="currentcolor" height="100%" viewBox="0 0 24 24" width="100%" xmlns="http://www.w3.org/2000/svg">
        <path d="M0 0h24v24H0z" fill="none" />
        <path d="M15.55 5.55L11 1v3.07C7.06 4.56 4 7.92 4 12s3.05 7.44 7 7.93v-2.02c-2.84-.48-5-2.94-5-5.91s2.16-5.43 5-5.91V10l4.55-4.45zM19.93 11c-.17-1.39-.72-2.73-1.62-3.89l-1.42 1.42c.54.75.88 1.6 1.02 2.47h2.02zM13 17.9v2.02c1.39-.17 2.74-.71 3.9-1.61l-1.44-1.44c-.75.54-1.59.89-2.46 1.03zm3.89-2.42l1.42 1.41c.9-1.16 1.45-2.5 1.62-3.89h-2.02c-.14.87-.48 1.72-1.02 2.48z"
        />
    </symbol>

    <symbol id="search" fill="currentcolor" height="100%" viewBox="0 0 24 24" width="100%" xmlns="http://www.w3.org/2000/svg">
        <path d="M15.5 14h-.79l-.28-.27C15.41 12.59 16 11.11 16 9.5 16 5.91 13.09 3 9.5 3S3 5.91 3 9.5 5.91 16 9.5 16c1.61 0 3.09-.59 4.23-1.57l.27.28v.79l5 4.99L20.49 19l-4.99-5zm-6 0C7.01 14 5 11.99 5 9.5S7.01 5 9.5 5 14 7.01 14 9.5 11.99 14 9.5 14z"
        />
        <path d="M0 0h24v24H0z" fill="none" />
    </symbol>

    <symbol id="shopping-cart" fill="currentcolor" height="100%" viewBox="0 0 24 24" width="100%" xmlns="http://www.w3.org/2000/svg">
        <path d="M7 18c-1.1 0-1.99.9-1.99 2S5.9 22 7 22s2-.9 2-2-.9-2-2-2zM1 2v2h2l3.6 7.59-1.35 2.45c-.16.28-.25.61-.25.96 0 1.1.9 2 2 2h12v-2H7.42c-.14 0-.25-.11-.25-.25l.03-.12.9-1.63h7.45c.75 0 1.41-.41 1.75-1.03l3.58-6.49c.08-.14.12-.31.12-.48 0-.55-.45-1-1-1H5.21l-.94-2H1zm16 16c-1.1 0-1.99.9-1.99 2s.89 2 1.99 2 2-.9 2-2-.9-2-2-2z"
        />
        <path d="M0 0h24v24H0z" fill="none" />
    </symbol>

    <symbol id="star-black" fill="currentcolor" height="100%" viewBox="0 0 24 24" width="100%" xmlns="http://www.w3.org/2000/svg">
        <path d="M0 0h24v24H0z" fill="none" />
        <path d="M12 17.27L18.18 21l-1.64-7.03L22 9.24l-7.19-.61L12 2 9.19 8.63 2 9.24l5.46 4.73L5.82 21z" />
        <path d="M0 0h24v24H0z" fill="none" />
    </symbol>

    <symbol id="view-comfy" fill="currentcolor" height="100%" viewBox="0 0 24 24" width="100%" xmlns="http://www.w3.org/2000/svg">
        <path d="M3 9h4V5H3v4zm0 5h4v-4H3v4zm5 0h4v-4H8v4zm5 0h4v-4h-4v4zM8 9h4V5H8v4zm5-4v4h4V5h-4zm5 9h4v-4h-4v4zM3 19h4v-4H3v4zm5 0h4v-4H8v4zm5 0h4v-4h-4v4zm5 0h4v-4h-4v4zm0-14v4h4V5h-4z"
        />
        <path d="M0 0h24v24H0z" fill="none" />
    </symbol>

</svg>
